<?xml version="1.0" standalone="no"?><!DOCTYPE svg PUBLIC "-//W3C//DTD SVG 1.1//EN" "http://www.w3.org/Graphics/SVG/1.1/DTD/svg11.dtd"><svg t="1583937896631" class="icon" viewBox="0 0 1024 1024" version="1.1" xmlns="http://www.w3.org/2000/svg" p-id="4289" xmlns:xlink="http://www.w3.org/1999/xlink" width="64" height="64"><defs><style type="text/css"></style></defs><path d="M727.273 0l1.707 0.014c55.685 0.934 101.168 47.45 102.965 104.88l0.04 1.744 0.015 1.786v807.152l-0.014 1.768c-0.902 57.65-45.831 104.739-101.304 106.599l-1.684 0.042-1.725 0.015H296.727l-1.707-0.014c-55.685-0.934-101.168-47.45-102.965-104.88l-0.04-1.744-0.015-1.786V108.424l0.014-1.768C192.916 49.006 237.845 1.917 293.318 0.057l1.684-0.042L296.727 0h430.546zM512 832c-35.165 0-64 28.835-64 64s28.835 64 64 64 64-28.835 64-64-28.835-64-64-64zM732.28 64H291.137c-18.993 0.322-34.506 16.12-35.124 35.623l-0.014 0.592v667.85l0.967-0.036 0.97-0.022 0.972-0.007h506.182l0.973 0.007 0.97 0.022 0.967 0.036V100.822l-0.006-0.607C767.678 80.24 751.73 64 732.28 64z" p-id="4290" fill="#ffffff"></path></svg>